<svg width="331" height="508" viewBox="0 0 331 508" fill="none" xmlns="http://www.w3.org/2000/svg">
<g opacity="0.8">
<path d="M115.424 180.021V160.526L190.527 147.742L201.712 228.278L149.3 281.649L87.2998 199.515L115.424 180.021Z" fill="#F7D1B0" stroke="black" stroke-miterlimit="16" stroke-linecap="round" stroke-linejoin="round"/>
<path d="M93.6918 54.7422L135.558 28.2164L174.547 35.5669L193.723 67.5257V122.814C191.151 132.629 182.003 149.128 183.675 147.866C183.856 147.697 184 147.562 184.103 147.465C184.366 147.212 184.354 147.228 184.103 147.465C184.029 147.536 183.934 147.628 183.816 147.742C183.762 147.794 183.715 147.835 183.675 147.866C180.206 151.091 162.858 166.795 148.022 172.99C143.064 173.951 139.743 174.209 133.001 174.268C125.781 171.236 122.179 168.875 116.383 163.722C103.94 154.635 97.0512 149.249 94.0114 122.814L88.2588 106.515C87.2771 85.5483 89.3033 74.6006 93.6918 54.7422Z" fill="#FED1B4" stroke="#F7D1B0" stroke-miterlimit="16" stroke-linecap="round" stroke-linejoin="round"/>
<path d="M117.562 144.546C122.376 140.765 127.64 141.192 134.279 141.99C142.897 139.614 147.743 138.842 154.954 140.392C150.411 146.055 145.885 147.788 137.696 150.619C127.622 150.514 122.781 148.877 117.562 144.546Z" fill="#7E0000"/>
<path d="M117.562 144.546C123.979 144.848 129.2 145.471 135.238 146.465C141.906 143.119 147.372 141.778 154.954 140.392M117.562 144.546C122.376 140.765 127.64 141.192 134.279 141.99C142.897 139.614 147.743 138.842 154.954 140.392M117.562 144.546C122.781 148.877 127.622 150.514 137.696 150.619C145.885 147.788 150.411 146.055 154.954 140.392" stroke="black" stroke-width="0.2" stroke-miterlimit="16" stroke-linecap="round" stroke-linejoin="round"/>
<path d="M81.2276 111.309C81.6889 108.752 82.0298 107.365 82.8255 104.918L87.6194 110.67C85.5913 111.149 86.3407 111.948 84.7428 114.825C82.1861 117.701 80.2686 124.093 81.2274 126.969C84.1538 131.643 85.9414 132.642 89.2173 134.959L86.9802 139.753C83.596 136.553 81.7504 134.628 78.9905 129.845C78.0315 127.928 78.042 123.078 79.6297 120.258C81.26 117.361 81.2276 113.014 81.2276 111.309Z" fill="black" stroke="black"/>
<path d="M123.451 129.734C124.031 129.69 124.423 129.252 124.962 129.132C125.56 128.999 126.315 128.976 126.895 129.152C127.015 129.189 127.102 129.21 127.229 129.21C127.387 129.21 127.474 129.281 127.618 129.331C127.896 129.427 128.154 129.525 128.406 129.674C128.884 129.956 129.363 130.222 129.767 130.612C129.871 130.712 130.038 130.769 130.157 130.844C130.291 130.93 130.398 131.045 130.521 131.144C130.763 131.338 130.995 131.55 131.307 131.628" stroke="black" stroke-width="0.5" stroke-linecap="round"/>
<path d="M125.617 129.063C125.234 129.123 124.857 129.251 124.47 129.291C124.279 129.311 124.079 129.386 123.906 129.466C123.766 129.53 123.639 129.61 123.515 129.697C123.477 129.724 123.383 129.815 123.479 129.815" stroke="black" stroke-width="0.5" stroke-linecap="round"/>
<path d="M123.479 129.815C123.488 129.843 123.57 129.858 123.595 129.863C123.648 129.874 123.714 129.874 123.768 129.863C123.863 129.845 123.938 129.758 124.028 129.726C124.166 129.677 124.294 129.604 124.431 129.551C124.502 129.523 124.571 129.492 124.644 129.465C124.706 129.442 124.774 129.433 124.834 129.405C124.946 129.353 125.067 129.326 125.181 129.281C125.298 129.236 125.437 129.224 125.56 129.215C125.955 129.183 126.344 129.184 126.741 129.198" stroke="black" stroke-width="0.5" stroke-linecap="round"/>
<path d="M123.633 129.942C123.51 129.933 123.29 129.832 123.366 129.674C123.43 129.542 123.599 129.489 123.713 129.416C123.831 129.341 123.969 129.282 124.104 129.251C124.152 129.24 124.201 129.214 124.248 129.198C124.305 129.18 124.362 129.167 124.419 129.15C124.511 129.122 124.613 129.122 124.708 129.103C124.757 129.094 124.801 129.084 124.851 129.079C125.02 129.06 125.179 129.106 125.345 129.108C125.654 129.11 125.962 129.117 126.27 129.144" stroke="black" stroke-width="0.5" stroke-linecap="round"/>
<path d="M123.47 129.887C123.554 129.901 123.627 129.927 123.714 129.907C123.807 129.886 123.89 129.877 123.977 129.833C124.129 129.757 124.276 129.679 124.434 129.613C124.679 129.512 124.923 129.402 125.184 129.354C125.297 129.334 125.404 129.302 125.519 129.294C125.626 129.286 125.734 129.289 125.841 129.289C125.942 129.289 126.043 129.289 126.143 129.289C126.309 129.289 126.47 129.253 126.637 129.253C126.798 129.253 126.96 129.253 127.122 129.253C127.148 129.253 127.163 129.266 127.186 129.274C127.257 129.301 127.347 129.31 127.419 129.326C127.566 129.36 127.714 129.378 127.861 129.408C127.91 129.418 127.958 129.433 128.005 129.451C128.083 129.482 128.157 129.502 128.237 129.525" stroke="black" stroke-width="0.5" stroke-linecap="round"/>
<path d="M140.784 127.775C141.343 127.775 141.93 127.751 142.482 127.667C142.949 127.597 143.352 127.299 143.79 127.144C143.965 127.082 144.378 126.909 144.158 126.667C144.003 126.497 143.713 126.473 143.504 126.402C143.355 126.352 143.202 126.362 143.047 126.362C142.512 126.362 142.016 126.287 141.496 126.435C140.939 126.593 140.347 126.622 139.799 126.812C139.421 126.943 139.012 126.994 138.709 127.267C138.555 127.407 138.356 127.562 138.237 127.735C138.143 127.872 138.01 127.991 137.937 128.141C137.809 128.406 137.594 128.65 137.389 128.858C137.045 129.209 136.722 129.582 136.38 129.935" stroke="black" stroke-width="0.5" stroke-linecap="round"/>
<path d="M140.811 127.719C141.433 127.719 142.183 127.771 142.756 127.462C143.068 127.295 143.321 126.992 143.679 126.916C143.765 126.898 144.152 126.873 143.898 126.805C143.695 126.751 143.509 126.743 143.298 126.728C143.109 126.716 142.921 126.667 142.733 126.667C142.481 126.667 142.245 126.584 141.99 126.584C141.842 126.584 141.694 126.584 141.547 126.584C141.263 126.584 141.755 126.584 141.808 126.584C142.404 126.584 142.985 126.667 143.581 126.667" stroke="black" stroke-width="0.5" stroke-linecap="round"/>
<path d="M143.027 126.632C142.522 126.715 142.019 126.825 141.507 126.825C141.322 126.825 141.137 126.838 140.953 126.838C140.745 126.838 140.56 126.864 140.357 126.915C140.154 126.966 139.952 127.042 139.747 127.083C139.733 127.085 139.703 127.106 139.706 127.093C139.72 127.038 140.018 127.013 140.041 127.01C140.292 126.967 140.544 126.928 140.788 126.857C140.894 126.826 140.984 126.79 141.094 126.78C141.199 126.77 141.326 126.738 141.431 126.751C141.495 126.759 141.555 126.761 141.619 126.761C141.633 126.761 141.683 126.769 141.675 126.742C141.664 126.702 141.509 126.71 141.483 126.71C141.224 126.71 140.978 126.778 140.725 126.824C140.461 126.872 140.201 126.924 139.945 127.005C139.709 127.081 139.468 127.142 139.232 127.218C138.979 127.3 138.746 127.448 138.537 127.61" stroke="black" stroke-width="0.5" stroke-linecap="round"/>
<path d="M143.026 126.826C143.02 126.919 142.97 127 142.9 127.061C142.862 127.095 142.77 127.171 142.71 127.157C142.644 127.142 142.717 127.019 142.729 127.001C142.78 126.926 143.02 126.784 142.955 126.847C142.902 126.897 142.781 126.918 142.719 126.934C142.6 126.965 142.42 127.031 142.294 127.012C142.165 126.992 142.569 126.894 142.681 126.96C142.754 127.003 142.755 127.083 142.716 127.15C142.696 127.184 142.607 127.245 142.61 127.205C142.617 127.12 142.749 127.023 142.807 126.98C142.864 126.938 142.938 126.894 143.012 126.901C143.079 126.907 143.084 126.976 143.032 127.006C143.002 127.023 143.082 126.955 143.098 126.95C143.119 126.943 143.251 126.903 143.262 126.947C143.266 126.964 143.233 126.991 143.248 126.993C143.285 126.996 143.228 127.006 143.195 127.015C142.698 127.152 142.191 127.273 141.681 127.351C141.615 127.361 141.012 127.492 140.932 127.321C140.859 127.167 141.342 126.972 141.384 126.955C141.625 126.859 141.891 126.802 142.144 126.888C142.164 126.895 142.388 126.993 142.337 127.067C142.276 127.156 142.026 127.179 141.941 127.197C141.804 127.226 141.664 127.248 141.525 127.266C141.457 127.275 141.499 127.257 141.537 127.24C141.656 127.188 141.808 127.134 141.941 127.159C142.033 127.176 141.986 127.247 141.939 127.284C141.829 127.371 141.681 127.412 141.545 127.436C141.534 127.438 141.344 127.48 141.392 127.392C141.456 127.277 141.625 127.201 141.737 127.156C141.811 127.126 142.251 126.955 142.274 127.137C142.285 127.221 142.296 127.244 142.343 127.309C142.382 127.362 142.443 127.456 142.341 127.456C141.842 127.456 141.338 127.381 140.852 127.52" stroke="black" stroke-width="0.5" stroke-linecap="round"/>
<path d="M138.009 127.983C138.114 127.967 138.213 127.923 138.314 127.897C138.43 127.866 138.55 127.857 138.667 127.829C138.863 127.781 139.063 127.778 139.26 127.739C139.498 127.692 139.749 127.694 139.983 127.641C140.066 127.623 140.163 127.637 140.248 127.636C140.443 127.632 140.652 127.57 140.844 127.533C141.245 127.456 141.592 127.255 141.92 127.018" stroke="black" stroke-width="0.5" stroke-linecap="round"/>
<path d="M140.814 127.803C140.267 127.849 139.708 127.878 139.166 127.97C139.055 127.989 138.954 128.017 138.841 128.028C138.652 128.046 138.45 128.082 138.272 128.151C138.127 128.208 138.005 128.27 137.875 128.356C137.786 128.415 137.685 128.464 137.636 128.562" stroke="black" stroke-width="0.5" stroke-linecap="round"/>
<path d="M138.614 127.674C139.143 127.554 139.642 127.334 140.177 127.234C140.513 127.171 140.861 127.141 141.201 127.098C141.335 127.082 141.163 127.145 141.132 127.157C140.899 127.246 140.65 127.277 140.418 127.367C140.414 127.368 140.295 127.427 140.308 127.427C140.602 127.423 140.893 127.29 141.182 127.241C141.209 127.236 141.218 127.251 141.246 127.243C141.274 127.234 141.299 127.226 141.328 127.224C141.349 127.223 141.371 127.202 141.388 127.193C141.408 127.181 141.568 127.078 141.475 127.115C141.215 127.22 140.972 127.368 140.696 127.427C140.482 127.473 140.264 127.493 140.046 127.494C139.977 127.495 139.742 127.459 139.681 127.52" stroke="black" stroke-width="0.5" stroke-linecap="round"/>
<path d="M139.682 127.52C139.443 127.583 139.202 127.635 138.961 127.687" stroke="black" stroke-width="0.5" stroke-linecap="round"/>
<path d="M123.358 129.855C123.381 129.905 123.454 129.921 123.501 129.941C123.558 129.963 123.617 129.991 123.679 129.988C123.793 129.982 123.904 129.95 124.014 129.922C124.166 129.884 124.321 129.83 124.465 129.765C124.599 129.705 124.736 129.654 124.866 129.585C124.933 129.549 125.007 129.53 125.077 129.501C125.172 129.462 125.268 129.426 125.365 129.395C125.588 129.323 125.837 129.311 126.068 129.311C126.257 129.311 126.443 129.349 126.63 129.367C126.781 129.382 126.933 129.383 127.085 129.386C127.154 129.387 127.23 129.416 127.296 129.434C127.413 129.466 127.529 129.468 127.649 129.482C127.887 129.509 127.968 129.526 128.207 129.526" stroke="black" stroke-width="0.5" stroke-linecap="round"/>
<path d="M259.839 187.313C259.466 194.698 260.821 197.946 263.792 203.417L266.307 220.289L314.821 218.755L318.774 193.064C320.346 185.813 320.894 181.328 320.211 171.208C320.129 169.211 319.616 168.795 316.618 171.208C312.995 177.753 311.945 181.774 310.868 189.23C310.396 190.727 310.074 191.504 307.993 191.147L307.274 156.254C305.029 152.711 303.77 152.202 301.525 156.254L298.65 190.38C295.26 166.094 293.964 159.379 291.822 149.352C290.546 145.13 289.412 143.748 286.072 144.368C285.276 161.887 285.508 171.71 286.072 189.23C282.803 175.589 282.202 168.622 277.088 153.954C274.989 151.779 273.963 151.148 273.135 153.954C273.75 173.904 274.492 184.778 276.729 203.417L276.01 203.417C270.507 195.491 267.105 189.792 263.073 187.313C260.607 185.638 259.913 186.77 259.839 187.313Z" fill="#F7D1B0" stroke="#F8CAB1" stroke-miterlimit="16" stroke-linecap="round" stroke-linejoin="round"/>
<path d="M28.845 391.722L20.8252 376.427L63.5977 361.546L81.5468 430.577C67.4403 429.782 59.5277 429.183 45.2666 421.07C42.0279 416.106 40.2801 412.626 37.6287 401.642C34.6962 397.873 32.8761 395.719 28.845 391.722Z" fill="#F7D1B0"/>
<path d="M46.1054 470.494C36.0905 447.17 73.0807 413.771 67.8369 379.073C46.7203 285.678 107.207 294.261 226.672 319.33L203.023 193.412C215.152 189.567 222.635 192.591 230.508 193.82C237.188 194.863 243.247 197.933 250.232 203.37C260.474 226.665 262.375 239.293 263.745 263.402C269.262 301.409 264.115 310.906 261.827 356.401C245.46 369.232 245.193 367.75 228.39 352.898C231.515 395.06 238.872 458.467 250.232 470.494C229.721 492.182 186.084 498.682 137.508 497.02C107.658 495.999 83.1503 469.249 46.1054 470.494Z" fill="#C9D0DF"/>
<path d="M51.8254 208.784C65.8665 209.247 81.9126 192.619 91.4543 195.681C112.864 230.257 124.829 248.185 152.176 270.465C176.25 248.059 189.522 235.161 203.31 197.279C263.653 339.266 260.139 387.798 77.9213 324.029C77.9405 348.171 76.3675 361.207 68.3952 382.824C62.7572 379.667 59.2502 372.898 53.0681 375.189C46.886 377.479 38.0677 365.017 25.2996 389.032C11.2606 370.276 5.23707 358.182 16.0315 309.774C12.7643 264.53 23.0468 207.835 51.8254 208.784Z" fill="#C9D0DF"/>
<path d="M265.585 213.258C291.505 213.969 302.108 213.942 315.99 213.258C319.571 271.157 315.069 301.149 311.596 350.753C308.124 400.356 246.355 365.837 246.355 365.837L260.816 342.42C258.709 300.322 262.648 275.331 265.585 213.258Z" fill="#C9D0DF"/>
<path d="M204.908 92.4537C202.819 91.477 201.352 92.2912 200.114 93.0925C194.129 99.5608 193.034 103.641 193.084 111.309V118.66L193.722 124.732C195.817 126.341 194.001 125.587 196.918 125.691C200.434 124.732 201.76 122.017 202.671 119.299C204.195 115.564 203.059 118.321 204.908 112.907C206.047 110.111 207.56 108.183 208.104 98.2061C207.391 95.6359 207.975 95.4518 204.908 92.4537Z" fill="#F7D1B0"/>
<path d="M111.588 20.5464C116.705 17.4262 119.574 15.0377 124.691 11.9175L130.763 10.6392C134.268 11.5107 138.267 11.6538 141.424 12.2054C142.806 11.5437 144.246 10.8325 145.464 10L157.928 11.5979C171.734 17.9234 177.939 22.8938 187.65 33.0103C192.463 41.0784 194.259 45.7077 196.279 54.1031C200.018 68.7839 201.325 77.0408 202.671 91.8144C207.425 116.672 209.272 131.229 211.299 157.969C220.385 169.12 224.407 181.642 225.681 196.639C225.835 209.336 224.069 216.344 216.413 228.598C204.669 232.406 197.966 234.194 185.732 236.588C172.16 238.215 164.761 237.143 152.815 223.485C162.134 218.814 166.572 214.617 172.949 204.309C178.898 183.19 181.883 171.135 182.537 146.784C186.39 139.866 188.031 134.751 189.887 123.134L191.485 112.907C189.869 104.347 190.836 100.325 191.165 91.1753C188.855 81.373 193.497 76.371 187.65 65.9278C184.846 59.9271 182.802 56.4182 177.423 49.6289C173.662 44.2409 169.713 41.1088 164.64 36.2062C157.618 32.4062 146.877 29.6066 139.392 28.8557C135.773 31.227 134.595 34.0897 130.124 34.9278C125.653 35.766 109.549 46.1318 108.392 47.0722C102.511 49.7658 100.247 52.8234 96.5675 57.299L91.7737 75.8351C89.3376 88.1683 87.8502 97.1896 93.0521 118.979L94.3304 123.134C100.958 147.44 106.137 155.162 116.382 163.082C116.257 170.696 117.341 179.381 116.062 182.577C114.784 185.773 104.12 191.94 94.9696 196.639H83.1449C67.0332 202.596 72.6671 203.95 62.0521 208.144C60.7104 204.552 59.5845 197.805 59.1758 192.165C59.7631 184.15 60.9972 179.899 64.6088 172.67C69.1846 163.083 71.9592 158.101 77.3923 149.979C86.443 140.168 89.7871 134.188 94.3304 123.134L93.0521 118.979C87.9426 114.608 86.223 110.674 83.4643 106.835C80.493 102.922 79.1038 100.581 78.0313 95.6495C77.7496 87.6907 77.9865 83.1671 79.949 74.8763C84.5056 56.6932 87.0825 47.7299 96.5674 33.3299L111.588 20.5464Z" fill="black"/>
<path d="M93.0521 118.979C87.9426 114.608 86.223 110.674 83.4643 106.835C80.493 102.922 79.1038 100.581 78.0313 95.6495C77.7496 87.6907 77.9865 83.1671 79.949 74.8763C84.5056 56.6932 87.0825 47.7299 96.5674 33.3299L111.588 20.5464C116.705 17.4262 119.574 15.0377 124.691 11.9175L130.763 10.6392C137.009 12.1925 144.827 11.432 146.644 14.7938L139.392 24.0619M93.0521 118.979L94.3304 123.134M93.0521 118.979C87.8502 97.1896 89.3376 88.1683 91.7737 75.8351L96.5675 57.299C100.247 52.8234 102.511 49.7658 108.392 47.0722C109.549 46.1318 125.653 35.766 130.124 34.9278C134.595 34.0897 135.773 31.227 139.392 28.8557M94.3304 123.134C89.7871 134.188 86.443 140.168 77.3923 149.979C71.9592 158.101 69.1846 163.083 64.6088 172.67C60.9972 179.899 59.7631 184.15 59.1758 192.165C59.5845 197.805 60.7104 204.552 62.0521 208.144C72.6671 203.95 67.0332 202.596 83.1449 196.639H94.9696C104.12 191.94 114.784 185.773 116.062 182.577C117.341 179.381 116.257 170.696 116.382 163.082C106.137 155.162 100.958 147.44 94.3304 123.134ZM139.392 24.0619L136.098 16.0722C136.297 13.8662 141.858 12.4652 145.464 10L157.928 11.5979C171.734 17.9234 177.939 22.8938 187.65 33.0103C192.463 41.0784 194.259 45.7077 196.279 54.1031C200.018 68.7839 201.325 77.0408 202.671 91.8144M139.392 24.0619V28.8557M202.671 91.8144C207.425 116.672 209.272 131.229 211.299 157.969C220.385 169.12 224.407 181.642 225.681 196.639C225.835 209.336 224.069 216.344 216.413 228.598C204.669 232.406 197.966 234.194 185.732 236.588C172.16 238.215 164.761 237.143 152.815 223.485C162.134 218.814 166.572 214.617 172.949 204.309C178.898 183.19 181.883 171.135 182.537 146.784C186.39 139.866 188.031 134.751 189.887 123.134L191.485 112.907M202.671 91.8144L193.083 102.68C192.628 105.624 192.157 108.615 191.485 112.907M139.392 28.8557C146.877 29.6066 157.618 32.4062 164.64 36.2062C169.713 41.1088 173.662 44.2409 177.423 49.6289C182.802 56.4182 184.846 59.9271 187.65 65.9278C193.497 76.371 188.855 81.373 191.165 91.1753C190.836 100.325 189.869 104.347 191.485 112.907" stroke="black" stroke-width="0.2"/>
<path d="M173.18 86.9763C159.524 79.0655 150.735 77.875 137.254 86.3752C135.742 87.3283 134.956 89.0922 135.173 90.866C135.713 95.2708 141.687 96.7469 145.073 93.878C153.12 87.0586 160.804 88.0905 169.465 92.8915C171.498 94.0187 174.116 93.0349 174.728 90.7919C175.13 89.316 174.503 87.7432 173.18 86.9763Z" fill="#FFCBA9" stroke="#F3D1B4" stroke-width="0.2"/>
<path d="M89.3648 94.8275C100.508 83.6519 108.689 80.2273 123.911 84.9486C125.618 85.478 126.834 86.9784 127.083 88.748C127.702 93.1422 122.313 96.1144 118.3 94.2195C108.762 89.7153 101.607 92.7007 94.4841 99.5797C92.8117 101.195 90.0286 100.922 88.8572 98.9138C88.0864 97.5923 88.2846 95.9109 89.3648 94.8275Z" fill="#FDD3B8" stroke="#F3D1B4" stroke-width="0.2"/>
<path d="M107.562 102.588C102.254 101.665 101.14 101.524 97.5263 99.2435C100.902 95.7542 103.918 94.0302 109.351 93.7319C116.062 94.3284 118.698 95.5349 122.454 99.2435C117.069 100.361 114.56 103.23 107.562 102.588Z" fill="white" stroke="black" stroke-width="0.2" stroke-miterlimit="16" stroke-linecap="round" stroke-linejoin="round"/>
<path d="M107.307 94.6763C107.268 94.6777 107.238 94.6787 107.21 94.6801L107.141 94.716L107.14 94.7164L107.104 94.7354L107.096 94.7396L107.092 94.7414L107.089 94.743L107.084 94.7454L107.078 94.7486L107.071 94.7519C107.054 94.7746 107.035 94.803 107.013 94.8376C106.892 95.0272 106.773 95.2738 106.714 95.4352L106.695 95.4864L106.669 95.5343C106.621 95.6221 106.563 95.817 106.416 96.3626C105.909 98.2575 107.033 100.204 108.927 100.712C110.822 101.219 112.769 100.096 113.276 98.2007C113.541 97.2122 113.363 96.2111 112.861 95.4045C112.693 95.2016 112.577 95.0886 112.472 94.9942C112.445 94.9702 112.413 94.9426 112.377 94.9117C112.363 94.8993 112.348 94.8863 112.332 94.8728C112.061 94.8923 111.753 94.8426 111.449 94.6803C111.383 94.68 111.312 94.6842 111.226 94.6893C111.211 94.6902 111.196 94.6911 111.18 94.692C111.134 94.6947 111.067 94.6986 110.993 94.6977L111.002 94.8318L110.01 94.6015C109.889 94.5734 109.781 94.5398 109.693 94.5112C109.651 94.4973 109.619 94.4865 109.591 94.4772C109.565 94.4682 109.543 94.4608 109.52 94.4535L109.399 94.5047L109.201 94.4391C109.189 94.4397 109.174 94.4406 109.156 94.4422C109.066 94.4501 108.944 94.4676 108.793 94.4927C108.724 94.5041 108.648 94.5174 108.567 94.5314C108.326 94.5734 108.048 94.622 107.83 94.6443C107.668 94.6607 107.532 94.6679 107.42 94.6723C107.375 94.6741 107.338 94.6753 107.307 94.6763ZM107.129 94.7206C107.132 94.7188 107.135 94.7167 107.139 94.7143C107.139 94.7142 107.139 94.7141 107.14 94.714L107.138 94.7112L107.121 94.6881C107.112 94.6975 107.099 94.7132 107.082 94.7362C107.087 94.7358 107.092 94.7351 107.097 94.7343C107.108 94.7301 107.12 94.7248 107.129 94.7206ZM106.61 94.7778C106.79 94.8234 106.935 94.7828 107.011 94.7507C106.943 94.7288 106.806 94.6667 106.666 94.5566L106.61 94.7778ZM106.672 94.5335C106.799 94.6525 106.937 94.7274 107.043 94.7362C107.044 94.7358 107.044 94.7354 107.045 94.735C107.083 94.7159 107.108 94.6974 107.12 94.6873L106.758 94.1941L106.672 94.5335ZM107.128 94.6803C107.128 94.6806 107.127 94.6809 107.127 94.6812L107.128 94.6803ZM109.234 94.4382C109.233 94.4382 109.233 94.4382 109.232 94.4382L109.234 94.4382Z" fill="black" stroke="black" stroke-width="1.5"/>
<circle cx="112.227" cy="100.124" r="0.639175" fill="white"/>
<path d="M118.619 94.0511C115.599 92.1113 113.403 91.5745 108.393 91.814C103.418 92.6108 101.42 93.7353 98.4854 96.2882" stroke="black" stroke-width="0.2" stroke-miterlimit="16" stroke-linecap="round" stroke-linejoin="round"/>
<path d="M148.341 95.0103C146.594 96.2584 144.975 97.5976 143.228 98.8456C148.544 100.213 150.381 101.229 157.289 100.443C162.53 99.3147 165.867 98.12 169.434 95.3302L162.403 93.7322C159.627 93.0839 157.736 92.1388 154.733 92.4536C151.678 92.7361 151.027 93.2914 148.341 95.0103Z" fill="white" stroke="black" stroke-width="0.2" stroke-miterlimit="16" stroke-linecap="round" stroke-linejoin="round"/>
<path d="M156.011 93.2037L156.097 93.2037L156.181 93.1843C156.245 93.1692 156.392 93.1616 156.579 93.179C156.664 93.1869 156.742 93.1986 156.802 93.2107C156.849 93.2202 156.871 93.227 156.873 93.2275L157.123 93.3335L157.391 93.245C157.376 93.2501 157.376 93.2501 157.397 93.2493C157.43 93.2479 157.516 93.2443 157.671 93.2569C157.882 93.274 158.142 93.3135 158.406 93.3685C158.67 93.4236 158.92 93.4905 159.112 93.5572C159.209 93.5907 159.28 93.6203 159.326 93.6432C159.346 93.6531 159.357 93.6595 159.361 93.6616C159.356 93.6584 159.339 93.6462 159.316 93.6232L159.352 93.587C159.364 93.6239 159.378 93.661 159.396 93.698C159.402 93.7016 159.408 93.7055 159.414 93.7094C159.414 93.7277 159.415 93.7481 159.417 93.7712L159.426 93.9407L159.507 94.0899C159.554 94.1776 159.613 94.3725 159.759 94.9181C160.267 96.813 159.143 98.7595 157.248 99.2671C155.354 99.7747 153.407 98.6511 152.899 96.7562C152.63 95.7531 152.818 94.737 153.337 93.9244C153.426 93.7855 153.499 93.6641 153.558 93.5665C153.565 93.5545 153.572 93.5429 153.579 93.5317C153.625 93.4543 153.658 93.4013 153.684 93.3623C153.705 93.3604 153.732 93.3583 153.762 93.3559C153.82 93.3512 153.89 93.3455 153.956 93.3395C154.157 93.3214 154.439 93.291 154.686 93.2248C154.736 93.2114 154.771 93.2074 154.87 93.2086C154.889 93.2088 154.91 93.2093 154.934 93.2098C155.046 93.2122 155.213 93.2158 155.421 93.202C155.597 93.1904 155.648 93.192 155.682 93.1935C155.692 93.1939 155.704 93.1946 155.718 93.1954C155.774 93.1985 155.865 93.2037 156.011 93.2037ZM159.411 93.6481C159.405 93.6114 159.401 93.5756 159.398 93.5408L159.405 93.5343C159.405 93.5363 159.405 93.5383 159.405 93.5404C159.408 93.577 159.409 93.6081 159.411 93.6481ZM159.517 93.6896C159.456 93.6265 159.425 93.5633 159.411 93.5277L159.604 93.3351L159.517 93.6896ZM159.536 93.7081L159.846 93.2857L159.846 93.6747C159.793 93.7112 159.74 93.7391 159.691 93.7568C159.668 93.765 159.646 93.7711 159.625 93.7748C159.618 93.7706 159.611 93.7661 159.604 93.7614C159.596 93.7563 159.589 93.7508 159.581 93.7451C159.565 93.733 159.55 93.7206 159.536 93.7081ZM159.723 93.7551C159.76 93.738 159.802 93.7159 159.846 93.6887L159.846 93.7487L159.846 93.8429C159.82 93.8429 159.741 93.8375 159.647 93.7871C159.668 93.7795 159.694 93.7689 159.723 93.7551Z" fill="black" stroke="black" stroke-width="1.5"/>
<circle cx="153.774" cy="98.8454" r="0.639175" fill="white"/>
<path d="M143.228 97.2476C145.53 95.7247 145.354 94.9764 146.743 93.4125C148.213 91.5379 148.98 90.5361 152.815 89.5784C159.527 88.9381 162.419 90.7228 167.516 93.7321" stroke="black" stroke-width="0.2" stroke-miterlimit="16" stroke-linecap="round" stroke-linejoin="round"/>
<path d="M114.145 79.031L117.871 82.2603C118.227 82.5689 117.996 83.1553 117.525 83.144C112.419 83.0213 109.844 83.2889 104.557 84.464C99.7634 85.7423 96.828 87.3743 91.4541 90.5362C93.557 87.2644 93.4757 85.4822 97.8459 82.5465C102.735 80.3306 108.373 78.3137 114.145 79.031Z" fill="black"/>
<path d="M155.691 81.9069C148.803 81.3693 145.422 82.085 139.459 83.9253C139.121 84.0295 138.782 83.7613 138.816 83.4095C139.152 79.9361 139.797 79.5092 141.949 78.3918C145.05 76.7816 151.496 76.3908 157.609 76.7935C170.28 80.075 172.403 82.9112 176.145 87.979C169.344 84.3132 165.021 82.815 155.691 81.9069Z" fill="black"/>
<path d="M114.145 79.031L117.871 82.2603C118.227 82.5689 117.996 83.1553 117.525 83.144C112.419 83.0213 109.844 83.2889 104.557 84.464C99.7634 85.7423 96.828 87.3743 91.4541 90.5362C93.557 87.2644 93.4757 85.4822 97.8459 82.5465C102.735 80.3306 108.373 78.3137 114.145 79.031Z" stroke="black"/>
<path d="M155.691 81.9069C148.803 81.3693 145.422 82.085 139.459 83.9253C139.121 84.0295 138.782 83.7613 138.816 83.4095C139.152 79.9361 139.797 79.5092 141.949 78.3918C145.05 76.7816 151.496 76.3908 157.609 76.7935C170.28 80.075 172.403 82.9112 176.145 87.979C169.344 84.3132 165.021 82.815 155.691 81.9069Z" stroke="black"/>
</g>
<path d="M129.706 115.144L130.91 97.5671L133.221 115.144C134.047 119.891 133.878 122.479 133.86 126.969C132.481 128.157 131.653 128.272 130.025 126.969C129.64 125.056 129.113 118.676 129.706 115.144Z" fill="#FFE3CB" stroke="#FFE3CB" stroke-width="0.2"/>
<path d="M127.596 96.1646C127.539 98.5562 127.218 100.902 126.999 103.278C126.804 105.392 126.769 107.519 126.498 109.627C126.363 110.676 126.042 111.619 125.794 112.635C125.108 115.44 124.513 118.325 123.001 120.822C122.634 121.427 122.178 122.619 121.581 123.018" stroke="#FDD3B8" stroke-width="2" stroke-linecap="round"/>
<path d="M134.04 95.7347C133.907 99.9906 134.45 104.136 135.878 108.165C136.697 110.474 137.65 113.044 139.089 115.069C139.748 115.997 140.497 116.841 141.177 117.749C141.679 118.418 142.057 118.812 142.848 119.151" stroke="#FDD3B8" stroke-width="2" stroke-linecap="round"/>
<path d="M145.022 127.631C143.365 129.13 141.514 130.703 139.375 131.451C138.163 131.874 137.018 132.491 135.911 133.128C134.173 134.127 132.078 134.422 130.135 133.934C129.359 133.739 128.674 133.459 127.959 133.112C127.37 132.827 126.928 132.344 126.371 132.021C125.53 131.534 124.73 131.044 123.796 130.746C123.09 130.52 122.359 130.273 121.671 129.998C120.705 129.611 119.79 129.099 119.633 127.962C119.448 126.63 119.884 124.71 120.957 123.781C121.172 123.594 121.589 123.07 121.717 122.814" stroke="#FDD3B8" stroke-width="2" stroke-linecap="round"/>
<path d="M142.81 118.979C143.449 119.938 144.981 120.317 145.519 121.334C145.726 121.727 145.872 122.199 145.96 122.634C146.196 123.798 146.271 125.102 146.119 126.279C146.072 126.649 145.853 127.09 145.494 127.193C145.354 127.273 145.047 127.421 145.047 127.608" stroke="#FDD3B8" stroke-width="2" stroke-linecap="round"/>
<path d="M208.005 186.732C208.943 160.456 205.241 133.349 192.345 105.876L203.531 119.299C213.785 154.789 213.27 166.849 208.005 186.732Z" fill="#5C5C5C"/>
<path d="M195.845 184.245C196.469 162.183 195.977 156.728 194.583 151.258C198.232 155.953 197.408 156.188 200.738 179.417C206.376 199.039 206.908 208.776 207.366 220.289C206.77 214.172 202 198.727 202 198.727C202 198.727 196.828 189.948 195.845 184.245Z" fill="#5C5C5C" stroke="#333333" stroke-width="0.2"/>
<path d="M87.4868 145.505C78.6254 158.62 72.8493 166.577 71.7792 186.969L71.668 199.289C71.5464 194.711 71.5866 190.639 71.7792 186.969L71.9045 173.076C73.1185 162.288 76.8636 156.242 87.4868 145.505Z" fill="#5C5C5C"/>
<path d="M94.8257 132.722C93.7088 148.51 92.685 158.289 101.955 176.485L108.018 187.209C105.624 183.306 103.623 179.759 101.955 176.485L95.1166 164.39C90.7736 154.44 90.9944 147.332 94.8257 132.722Z" fill="#5C5C5C"/>
<path d="M140.892 27.8969C173.018 54.8629 184.89 69.8291 192.665 90.8556C191.825 73.3633 188.766 63.8193 182.438 43.2371C163.227 33.877 155.94 30.5265 140.892 27.8969Z" fill="#333333"/>
<path d="M162.596 40.1815C156.794 33.3441 147.771 27.3163 136.493 29.2577C140.347 29.0117 150.705 33.6758 155.762 43.1599C160.807 52.6193 169.424 57.9757 172.634 59.6003C184.572 64.6771 190.511 65.3924 201.064 66.5554C187.682 62.931 179.95 60.9335 176.313 55.9287C170.786 48.1883 168.398 47.0189 162.596 40.1815Z" fill="#5C5C5C" stroke="#333333" stroke-width="0.2"/>
<path d="M68.6648 383.278C66.455 351.287 66.0964 345.079 65.7885 335.66C73.7739 353.799 77.7754 363.912 79.2112 384.557C74.7989 406.351 68.315 411.98 59.0771 427.381C64.9685 410.827 68.2414 401.537 68.6648 383.278Z" fill="#C9CFDE"/>
<path d="M231.229 391.268C231.907 357.051 229.881 350.208 231.229 334.701C223.116 357.327 219.051 369.942 217.593 395.694C222.075 422.88 228.662 429.902 238.046 449.113C236.025 428.259 239.206 413.655 231.229 391.268Z" fill="#C9CFDE"/>
<path d="M295.677 370.159C283.581 376.205 281.82 374.13 276.128 376.541C283.076 376.836 289.411 379.044 300.686 373.371C312.011 364.055 309.499 358.156 311.603 354.516C304.722 358.972 301.891 363.534 295.677 370.159Z" fill="#C9CFDE"/>
<path d="M259.591 244.797C260.256 248.44 261.415 251.983 262.038 255.631C262.229 256.751 262.376 257.857 262.626 258.968C262.876 260.073 262.839 261.106 262.901 262.226C262.952 263.142 263.207 264.027 263.235 264.947C263.271 266.133 263.394 267.282 263.529 268.46C263.806 270.874 264.353 273.24 264.655 275.65" stroke="#C9CFDE" stroke-width="5" stroke-linecap="round"/>
<path d="M264.654 275.651C264.519 272.302 264.209 268.971 264.262 265.615C264.317 262.127 264.566 258.64 265.001 255.18C265.612 250.323 266.707 245.599 267.598 240.793" stroke="#C9CFDE" stroke-width="5" stroke-linecap="round"/>
<path d="M109.253 46.1135C99.9467 56.2885 96.8651 65.4061 92.3145 83.1856C91.0457 94.5482 91.108 100.697 92.3145 111.309C100.981 136.952 117.842 159.424 121.077 163.402C122.875 163.407 132.356 177.691 147.777 172.331C149.34 171.76 150.942 171.022 152.717 170.113C154.529 169.088 156.202 168.1 157.753 167.14C165.365 161.475 167.64 154.616 168.28 152.856C174.841 137.182 179.105 129.346 183.62 110.351C186.052 99.9851 185.556 89.4684 182.119 70.0825C191.244 76.4347 195.08 88.1816 191.387 103.959C194.228 111.593 192.393 119.258 185.314 141.031C176.238 151.546 172.444 158.048 157.753 167.14C155.118 169.1 151.844 170.917 147.778 172.331C147.778 172.331 147.778 172.331 147.777 172.331C143.381 173.939 139.298 174.231 132.583 173.309C124.673 169.701 119.94 166.802 116.219 163.557C111.858 159.754 108.886 155.475 103.82 149.021C98.3041 137.442 95.7229 129.879 92.3145 116.103C87.985 103.012 87.4925 95.2529 89.7578 80.6289C92.025 60.7827 95.405 52.1708 109.253 46.1135Z" fill="#FDD3B8"/>
</svg>
